<?xml version="1.0" encoding="utf-8"?>
<!-- Generator: Adobe Illustrator 14.0.0, SVG Export Plug-In . SVG Version: 6.00 Build 43363)  -->
<!DOCTYPE svg PUBLIC "-//W3C//DTD SVG 1.1//EN" "http://www.w3.org/Graphics/SVG/1.1/DTD/svg11.dtd">
<svg version="1.1"
	 id="svg2989" xmlns:sodipodi="http://sodipodi.sourceforge.net/DTD/sodipodi-0.dtd" xmlns:inkscape="http://www.inkscape.org/namespaces/inkscape" inkscape:version="0.48.3.1 r9886" xmlns:cc="http://creativecommons.org/ns#" xmlns:rdf="http://www.w3.org/1999/02/22-rdf-syntax-ns#" xmlns:dc="http://purl.org/dc/elements/1.1/" xmlns:svg="http://www.w3.org/2000/svg" sodipodi:docname="shopping_cart_font_awesome.svg"
	 xmlns="http://www.w3.org/2000/svg" xmlns:xlink="http://www.w3.org/1999/xlink" x="0px" y="0px" width="16px" height="16px"
	 viewBox="0 0 16 16" enable-background="new 0 0 16 16" xml:space="preserve">
<sodipodi:namedview  id="namedview2995" inkscape:window-y="25" inkscape:cy="896" inkscape:current-layer="svg2989" showgrid="false" inkscape:pageshadow="2" inkscape:window-x="0" guidetolerance="10" inkscape:zoom="0.13169643" borderopacity="1" inkscape:cx="896" inkscape:window-width="640" gridtolerance="10" objecttolerance="10" inkscape:window-height="480" inkscape:pageopacity="0" pagecolor="#ffffff" bordercolor="#666666" inkscape:window-maximized="0">
	</sodipodi:namedview>
<g id="g2991" transform="matrix(1,0,0,-1,68.338983,1209.4915)">
	<path id="path2993" inkscape:connector-curvature="0" d="M-61.993,1196.816c0-0.279-0.098-0.518-0.295-0.714
		s-0.436-0.296-0.713-0.296c-0.278,0-0.517,0.1-0.713,0.296c-0.197,0.196-0.295,0.435-0.295,0.714c0,0.277,0.099,0.516,0.295,0.713
		c0.196,0.196,0.435,0.295,0.713,0.295c0.277,0,0.516-0.099,0.713-0.295C-62.091,1197.329-61.993,1197.093-61.993,1196.816z
		 M-54.934,1196.816c0-0.279-0.099-0.518-0.296-0.714c-0.195-0.196-0.435-0.296-0.713-0.296c-0.277,0-0.516,0.1-0.713,0.296
		s-0.296,0.435-0.296,0.714c0,0.277,0.099,0.516,0.296,0.713c0.197,0.196,0.436,0.295,0.713,0.295c0.278,0,0.518-0.099,0.713-0.295
		C-55.032,1197.329-54.934,1197.093-54.934,1196.816z M-53.925,1205.388v-4.035c0-0.126-0.042-0.238-0.126-0.335
		c-0.085-0.097-0.192-0.153-0.323-0.169l-8.227-0.961c0.006-0.037,0.018-0.094,0.035-0.17c0.02-0.076,0.034-0.146,0.047-0.208
		c0.014-0.063,0.021-0.121,0.021-0.174c0-0.084-0.063-0.252-0.189-0.505h7.248c0.138,0,0.255-0.049,0.355-0.149
		c0.1-0.101,0.148-0.218,0.148-0.354c0-0.135-0.05-0.254-0.148-0.354c-0.102-0.1-0.219-0.148-0.355-0.148h-8.066
		c-0.138,0-0.255,0.049-0.354,0.148s-0.15,0.219-0.15,0.354c0,0.074,0.029,0.179,0.088,0.312c0.058,0.135,0.135,0.29,0.231,0.469
		c0.097,0.18,0.151,0.278,0.162,0.301l-1.396,6.484h-1.606c-0.137,0-0.255,0.051-0.354,0.148c-0.101,0.101-0.149,0.219-0.149,0.354
		c0,0.138,0.05,0.255,0.149,0.354c0.1,0.101,0.218,0.149,0.354,0.149h2.017c0.084,0,0.16-0.017,0.225-0.051
		c0.066-0.034,0.119-0.075,0.158-0.122s0.074-0.111,0.103-0.193c0.029-0.082,0.05-0.15,0.06-0.209
		c0.01-0.058,0.024-0.135,0.043-0.231c0.018-0.097,0.029-0.164,0.035-0.201h9.461c0.138,0,0.256-0.05,0.354-0.149
		C-53.978,1205.643-53.925,1205.525-53.925,1205.388z"/>
</g>
</svg>
