<svg xmlns="http://www.w3.org/2000/svg" width="16px" height="16px"><g>
<path fill="#FFFFFF" d="M10.939,3.767c0,0.662,0.509,1.193,1.142,1.193s1.142-0.531,1.142-1.193s-0.509-1.2-1.142-1.2
	C11.448,2.567,10.939,3.105,10.939,3.767z M3.579,10.582l1.825,1.92l-4.967,3.295L3.579,10.582z M15.542,0.095
	c0.065,0.058,0.095,0.131,0.095,0.218c0,1.629-0.233,3.033-0.705,4.218c-0.473,1.193-1.258,2.364-2.371,3.535
	c-0.509,0.524-1.113,1.098-1.825,1.731l-0.189,3.716c-0.007,0.102-0.058,0.189-0.145,0.255l-3.593,2.196
	C6.764,15.985,6.713,16,6.655,16c-0.073,0-0.145-0.029-0.211-0.087L5.841,15.28c-0.08-0.087-0.102-0.189-0.073-0.313l0.8-2.705
	l-0.633-0.655l-1.367-1.44L3.935,9.513l-2.582,0.829c-0.015,0.007-0.044,0.007-0.08,0.007c-0.087,0-0.16-0.029-0.218-0.087
	L0.459,9.636C0.35,9.513,0.335,9.389,0.408,9.251l2.095-3.76c0.065-0.095,0.145-0.145,0.247-0.16l3.542-0.196
	c0.604-0.742,1.149-1.382,1.651-1.913c1.171-1.215,2.284-2.065,3.345-2.524C12.35,0.233,13.695,0,15.317,0
	C15.404,0,15.477,0.029,15.542,0.095z"/>
</g></svg>
